<?xml version="1.0" standalone="no"?>
<!DOCTYPE svg PUBLIC "-//W3C//DTD SVG 20010904//EN"
 "http://www.w3.org/TR/2001/REC-SVG-20010904/DTD/svg10.dtd">
<svg version="1.0" xmlns="http://www.w3.org/2000/svg"
 width="648.000000pt" height="317.000000pt" viewBox="0 0 648.000000 317.000000"
 preserveAspectRatio="xMidYMid meet">

<g transform="translate(0.000000,317.000000) scale(0.100000,-0.100000)"
fill="#000000" stroke="none">
<path d="M3147 2473 c-2 -4 -10 -25 -16 -45 -12 -37 -14 -38 -62 -38 -60 0
-65 -18 -13 -51 28 -17 34 -26 29 -43 -13 -44 -17 -86 -9 -86 4 0 25 12 46 26
l38 27 38 -27 c21 -14 42 -26 46 -26 8 0 4 42 -9 86 -5 17 1 26 29 43 52 33
47 51 -13 51 -49 0 -49 0 -63 42 -14 40 -31 58 -41 41z"/>
<path d="M3908 2298 c-14 -42 -16 -43 -63 -48 -27 -3 -50 -10 -52 -16 -2 -6
12 -22 32 -35 38 -25 37 -20 18 -106 -7 -30 12 -29 53 2 l33 26 40 -27 c52
-34 64 -26 45 29 l-15 42 35 30 c50 42 47 55 -13 55 -49 0 -49 0 -63 42 -18
56 -33 58 -50 6z"/>
<path d="M2420 2275 l-13 -45 -48 0 c-37 0 -49 -4 -49 -15 0 -8 3 -15 8 -15 4
-1 19 -11 35 -23 27 -23 27 -23 13 -70 -17 -58 -6 -67 39 -33 41 32 43 32 85
1 43 -32 55 -20 39 35 l-13 43 37 29 c20 17 37 34 37 39 0 5 -22 9 -49 9 -49
0 -49 0 -63 43 -20 58 -42 60 -58 2z"/>
<path d="M1167 2213 c-4 -3 -7 -280 -7 -615 0 -566 1 -609 17 -606 14 2 21 37
44 198 23 160 28 231 29 398 l0 202 28 0 28 0 27 198 c15 108 27 205 27 215 0
15 -11 17 -93 17 -52 0 -97 -3 -100 -7z"/>
<path d="M5525 2008 c-8 -24 -37 -351 -37 -418 0 -36 4 -134 7 -217 l7 -153
-25 0 c-22 0 -27 -6 -31 -32 -12 -75 -37 -390 -32 -395 8 -9 180 -3 189 6 4 4
-4 248 -18 542 -13 294 -26 565 -27 603 -2 45 -7 71 -15 74 -7 2 -15 -2 -18
-10z"/>
<path d="M2225 1822 c-68 -23 -107 -53 -144 -109 -43 -65 -55 -113 -55 -221 1
-85 3 -98 35 -159 60 -117 161 -170 306 -161 97 7 173 44 224 112 49 64 64
121 64 233 -1 85 -4 97 -35 160 -41 78 -95 125 -172 148 -68 20 -161 19 -223
-3z m183 -107 c20 -9 47 -26 60 -38 56 -53 68 -222 21 -308 -65 -119 -236
-115 -299 6 -21 42 -25 63 -25 135 0 72 4 92 25 130 43 77 135 109 218 75z"/>
<path d="M1390 1505 l0 -325 65 0 65 0 2 206 3 206 126 -203 125 -204 67 -3
67 -3 0 326 0 325 -60 0 -60 0 -2 -212 -3 -212 -130 212 -129 212 -68 0 -68 0
0 -325z"/>
<path d="M2760 1505 l0 -325 65 0 65 0 0 136 0 137 50 -5 c64 -6 79 -21 171
-159 l72 -109 79 0 c78 0 79 0 67 23 -37 69 -144 219 -171 238 l-31 23 35 12
c58 20 86 43 108 88 51 106 1 225 -108 256 -20 5 -119 10 -219 10 l-183 0 0
-325z m364 194 c20 -16 26 -29 26 -58 0 -63 -23 -75 -151 -79 l-109 -4 0 81 0
81 104 0 c89 0 107 -3 130 -21z"/>
<path d="M3410 1505 l0 -325 65 0 65 0 1 243 c0 147 4 232 9 217 5 -14 32
-123 61 -243 l52 -218 65 3 65 3 56 228 c31 126 59 225 64 221 4 -4 7 -108 7
-231 l0 -223 60 0 60 0 0 325 0 325 -98 0 -99 0 -42 -162 c-23 -90 -50 -188
-58 -218 l-16 -55 -57 215 -57 215 -101 3 -102 3 0 -326z"/>
<path d="M4236 1514 c-69 -173 -126 -320 -126 -325 0 -5 31 -9 69 -9 l68 0 28
75 27 75 128 0 127 0 28 -75 27 -75 74 0 74 0 -13 33 c-7 17 -67 164 -133 324
l-119 293 -67 0 -66 0 -126 -316z m234 37 c22 -56 40 -104 40 -107 0 -2 -38
-4 -84 -4 l-84 0 41 109 c23 61 43 109 44 107 2 -2 21 -49 43 -105z"/>
<path d="M4830 1505 l0 -325 60 0 60 0 0 208 c1 188 2 205 16 187 8 -11 67
-104 131 -207 l115 -188 69 0 69 0 0 325 0 325 -65 0 -65 0 -2 -209 -3 -208
-128 208 -129 209 -64 0 -64 0 0 -325z"/>
<path d="M1342 997 c-34 -34 -62 -67 -62 -73 0 -5 31 -41 70 -79 l70 -69 30
29 c16 16 30 33 30 39 0 6 -16 26 -35 46 l-35 36 30 29 c16 16 30 32 30 37 0
6 -58 68 -64 68 -1 0 -30 -28 -64 -63z"/>
<path d="M5152 1027 c-29 -31 -28 -35 13 -77 l35 -36 -30 -29 c-37 -36 -37
-44 0 -80 l30 -29 56 54 c86 85 86 82 13 156 -35 35 -71 64 -79 64 -9 0 -26
-10 -38 -23z"/>
<path d="M3621 1003 c0 -10 4 -27 9 -38 8 -18 9 -17 9 8 1 15 1 30 2 34 0 4
-4 9 -10 11 -6 2 -11 -5 -10 -15z"/>
<path d="M3670 990 c0 -16 5 -30 10 -30 6 0 10 14 10 30 0 17 -4 30 -10 30 -5
0 -10 -13 -10 -30z"/>
<path d="M3888 1013 c8 -3 12 -31 12 -89 0 -75 -2 -84 -19 -84 -14 0 -26 21
-51 85 -18 47 -36 82 -40 78 -3 -4 -19 -41 -34 -80 -15 -40 -35 -77 -44 -83
-13 -7 -8 -9 23 -9 31 0 36 2 23 9 -10 6 -14 18 -11 30 8 29 69 28 78 -1 5
-14 2 -25 -6 -30 -9 -5 13 -9 56 -9 54 0 66 3 57 12 -7 7 -12 44 -12 95 0 80
-1 83 -22 82 -13 0 -17 -3 -10 -6z m-84 -90 c6 -20 4 -23 -19 -23 -22 0 -26 3
-20 18 4 9 10 25 13 36 5 20 14 11 26 -31z"/>
<path d="M3963 1009 c14 -8 17 -24 17 -89 0 -53 -4 -80 -12 -83 -7 -3 3 -5 22
-5 19 0 29 2 23 5 -9 3 -13 32 -13 94 l0 89 -27 0 c-24 -1 -25 -2 -10 -11z"/>
<path d="M4183 1009 c14 -8 17 -24 17 -82 0 -44 -5 -78 -12 -85 -9 -9 -4 -12
23 -11 18 0 28 3 22 6 -9 3 -13 32 -13 94 l0 89 -27 0 c-24 -1 -25 -2 -10 -11z"/>
<path d="M5030 983 c0 -28 3 -34 10 -23 13 20 13 60 0 60 -5 0 -10 -17 -10
-37z"/>
<path d="M5077 1013 c-4 -6 -3 -23 2 -39 l8 -29 6 30 c5 30 -5 55 -16 38z"/>
<path d="M1543 999 c25 -15 25 -143 0 -158 -14 -8 -8 -10 27 -10 35 0 41 2 28
10 -15 8 -18 24 -18 84 0 62 3 74 18 78 9 3 -3 5 -28 6 -35 0 -41 -2 -27 -10z"/>
<path d="M2563 999 c13 -8 17 -24 17 -79 0 -55 -4 -71 -17 -79 -14 -8 -8 -10
27 -10 35 0 41 2 28 10 -15 8 -18 24 -18 84 0 62 3 74 18 78 9 3 -3 5 -28 6
-35 0 -41 -2 -27 -10z"/>
<path d="M3140 995 c0 -9 5 -15 11 -13 6 2 11 8 11 13 0 5 -5 11 -11 13 -6 2
-11 -4 -11 -13z"/>
<path d="M4617 1004 c-8 -8 1 -24 14 -24 5 0 9 7 9 15 0 15 -12 20 -23 9z"/>
<path d="M2190 970 c0 -11 -6 -20 -12 -20 -10 0 -10 -2 -1 -8 6 -4 13 -30 15
-57 2 -39 7 -51 22 -53 10 -2 23 1 28 6 7 7 4 10 -8 9 -16 -2 -20 6 -22 45 -3
42 -1 47 20 51 l23 4 -22 2 c-16 1 -23 7 -23 21 0 11 -4 20 -10 20 -5 0 -10
-9 -10 -20z"/>
<path d="M4110 970 c0 -11 -6 -20 -12 -20 -10 0 -10 -2 -1 -8 6 -4 13 -30 15
-57 2 -39 7 -51 22 -53 10 -2 23 1 28 6 7 7 4 10 -8 9 -16 -2 -20 6 -22 45 -2
38 0 47 15 51 17 4 17 5 1 6 -11 1 -18 9 -18 21 0 11 -4 20 -10 20 -5 0 -10
-9 -10 -20z"/>
<path d="M4530 970 c0 -11 -6 -20 -12 -20 -10 0 -10 -2 -1 -8 6 -4 13 -30 15
-57 3 -45 6 -50 28 -53 22 -2 23 -1 8 8 -13 8 -18 24 -18 55 0 33 4 45 18 48
16 4 16 5 0 6 -11 1 -18 9 -18 21 0 11 -4 20 -10 20 -5 0 -10 -9 -10 -20z"/>
<path d="M1639 937 c15 -15 14 -80 -1 -95 -9 -9 -4 -12 23 -11 18 0 28 3 22 6
-20 7 -17 89 3 97 9 3 20 4 25 0 14 -8 11 -92 -3 -97 -7 -3 3 -6 22 -6 19 0
30 3 23 7 -6 4 -13 30 -15 57 l-3 50 -54 2 c-40 1 -51 -1 -42 -10z"/>
<path d="M1803 888 c25 -52 31 -60 37 -43 4 11 4 22 0 25 -15 10 -31 52 -26
66 4 10 -2 14 -18 14 l-23 0 30 -62z"/>
<path d="M1859 941 c10 -7 11 -13 1 -31 -6 -12 -10 -24 -8 -26 3 -2 12 12 21
31 16 35 16 35 -6 35 -16 0 -18 -3 -8 -9z"/>
<path d="M1932 943 c-21 -8 -33 -50 -22 -77 15 -41 80 -47 95 -9 5 14 2 14
-15 -2 -23 -21 -52 -12 -58 19 -3 13 5 16 37 16 45 0 54 16 25 44 -15 16 -37
19 -62 9z m46 -26 c3 -12 -3 -17 -22 -17 -25 0 -35 18 -19 34 12 12 38 2 41
-17z"/>
<path d="M2029 941 c9 -6 12 -24 10 -60 -4 -46 -2 -51 16 -51 18 0 20 5 16 46
-3 48 9 67 36 57 17 -7 18 -89 1 -96 -7 -3 3 -5 22 -5 19 0 29 2 23 5 -8 3
-13 23 -13 48 0 52 -11 61 -75 63 -31 1 -45 -2 -36 -7z"/>
<path d="M2658 938 c16 -16 15 -81 0 -96 -9 -9 -7 -12 12 -12 24 0 25 3 22 49
-3 38 0 50 13 55 9 3 21 4 26 0 14 -8 11 -92 -3 -97 -7 -3 3 -5 22 -5 19 0 29
2 23 5 -18 7 -16 78 2 93 24 20 38 -2 34 -54 -4 -43 -3 -46 20 -46 20 0 22 3
13 12 -7 7 -12 31 -12 55 0 46 -15 62 -47 47 -10 -4 -22 -6 -28 -4 -5 1 -32 4
-59 6 -39 3 -47 1 -38 -8z"/>
<path d="M2893 944 c-15 -7 -17 -34 -3 -34 6 0 10 7 10 15 0 8 9 15 20 15 17
0 19 -6 17 -50 -2 -48 5 -60 35 -60 7 0 7 4 0 13 -6 7 -12 33 -14 57 -3 40 -6
45 -28 47 -14 1 -31 -1 -37 -3z"/>
<path d="M3010 935 c-7 -8 -9 -22 -5 -32 11 -28 14 -73 4 -73 -5 0 -9 -9 -9
-20 0 -24 42 -37 79 -24 19 7 26 17 26 34 0 21 -6 26 -38 30 -39 5 -51 22 -20
29 28 5 45 23 40 42 -3 11 2 20 12 22 9 3 -5 5 -30 6 -30 1 -51 -4 -59 -14z
m58 -18 c4 -20 -25 -34 -40 -19 -15 15 -1 44 19 40 10 -2 19 -11 21 -21z m20
-104 c-4 -22 -44 -29 -63 -13 -22 18 -9 30 31 30 28 0 35 -4 32 -17z"/>
<path d="M3129 941 c9 -6 12 -24 10 -60 -4 -46 -2 -51 16 -51 18 0 20 5 17 60
-4 58 -5 60 -30 60 -19 0 -23 -3 -13 -9z"/>
<path d="M3208 938 c16 -16 16 -95 0 -101 -7 -3 3 -5 22 -5 19 0 29 2 23 5
-18 7 -16 78 2 93 24 20 38 -2 34 -54 -4 -41 -2 -46 17 -46 20 0 20 3 13 50
-4 27 -11 54 -14 60 -8 14 -38 13 -53 -2 -9 -9 -12 -9 -12 0 0 7 -10 12 -22
12 -17 0 -19 -3 -10 -12z"/>
<path d="M3366 928 c-9 -12 -16 -29 -16 -38 0 -49 63 -78 91 -42 13 15 12 16
-3 4 -22 -17 -54 -7 -61 18 -4 17 0 20 34 20 31 0 39 4 39 18 0 44 -58 57 -84
20z m62 -11 c3 -13 -3 -17 -28 -17 -28 0 -30 2 -20 21 13 24 43 22 48 -4z"/>
<path d="M3490 936 c0 -9 7 -16 16 -16 17 0 14 22 -4 28 -7 2 -12 -3 -12 -12z"/>
<path d="M4236 942 c-3 -5 2 -9 12 -8 13 1 18 -8 20 -43 2 -28 -1 -47 -10 -52
-8 -6 -1 -9 21 -9 26 0 31 3 23 13 -6 7 -12 33 -14 57 -2 37 -7 46 -25 48 -11
2 -24 -1 -27 -6z"/>
<path d="M4346 928 c-21 -30 -20 -61 2 -81 24 -22 56 -22 73 1 11 14 11 15 -1
5 -21 -19 -48 -16 -60 6 -15 29 -13 31 30 31 32 0 40 4 40 18 0 44 -58 57 -84
20z m62 -11 c3 -13 -3 -17 -27 -17 -33 0 -39 8 -19 28 17 17 42 11 46 -11z"/>
<path d="M4608 938 c16 -16 16 -95 0 -101 -7 -3 3 -5 22 -5 19 0 29 2 23 5 -8
3 -13 25 -13 59 0 49 -2 54 -22 54 -17 0 -19 -3 -10 -12z"/>
<path d="M4678 943 c7 -3 12 -24 12 -53 0 -29 -5 -50 -12 -53 -7 -3 3 -6 22
-6 26 -1 31 2 22 11 -16 16 -15 70 1 87 10 11 10 13 0 7 -7 -4 -13 -2 -13 3 0
6 -10 11 -22 10 -13 0 -17 -3 -10 -6z"/>
<path d="M4753 932 c20 -22 22 -73 5 -90 -9 -9 -7 -12 13 -12 23 0 24 3 20 48
-3 51 -15 72 -39 72 -13 0 -13 -2 1 -18z"/>
<path d="M4806 941 c-3 -5 2 -8 12 -7 13 1 18 -8 20 -43 2 -28 -1 -47 -10 -52
-8 -6 0 -8 22 -8 19 0 29 3 23 6 -8 3 -13 24 -13 53 0 34 -4 50 -16 54 -22 8
-32 8 -38 -3z"/>
<path d="M4917 932 c-34 -38 -9 -102 39 -102 16 0 15 2 -6 13 -14 7 -26 20
-28 30 -3 14 4 17 37 17 34 0 41 3 41 20 0 19 -27 40 -53 40 -8 0 -21 -8 -30
-18z m61 -15 c3 -13 -3 -17 -27 -17 -33 0 -39 8 -19 28 17 17 42 11 46 -11z"/>
<path d="M2335 920 c3 -5 30 -10 60 -10 30 0 57 5 60 10 4 6 -18 10 -60 10
-42 0 -64 -4 -60 -10z"/>
<path d="M2886 884 c-9 -8 -16 -19 -16 -23 0 -13 24 -31 40 -30 10 0 11 2 3 6
-16 6 -17 35 -1 51 8 8 9 12 1 12 -6 0 -19 -7 -27 -16z"/>
<path d="M2335 870 c3 -5 30 -10 60 -10 30 0 57 5 60 10 4 6 -18 10 -60 10
-42 0 -64 -4 -60 -10z"/>
<path d="M4986 853 c-6 -14 -5 -15 5 -6 7 7 10 15 7 18 -3 3 -9 -2 -12 -12z"/>
<path d="M3490 844 c0 -9 5 -14 12 -12 18 6 21 28 4 28 -9 0 -16 -7 -16 -16z"/>
</g>
</svg>
